<mxfile host="app.diagrams.net" modified="2020-09-14T22:16:54.270Z" agent="5.0 (Windows NT 10.0; Win64; x64) AppleWebKit/537.36 (KHTML, like Gecko) Chrome/85.0.4183.102 Safari/537.36" etag="v55P96TEExohZwZ-Krfe" version="13.7.0" type="github">
  <diagram id="C5RBs43oDa-KdzZeNtuy" name="Page-1">
    <mxGraphModel dx="1185" dy="635" grid="1" gridSize="10" guides="1" tooltips="1" connect="1" arrows="1" fold="1" page="1" pageScale="1" pageWidth="827" pageHeight="1169" math="0" shadow="0">
      <root>
        <mxCell id="WIyWlLk6GJQsqaUBKTNV-0" />
        <mxCell id="WIyWlLk6GJQsqaUBKTNV-1" parent="WIyWlLk6GJQsqaUBKTNV-0" />
        <mxCell id="sAYLSgdPXj7yx2jMauLX-14" value="" style="edgeStyle=orthogonalEdgeStyle;rounded=0;orthogonalLoop=1;jettySize=auto;html=1;" edge="1" parent="WIyWlLk6GJQsqaUBKTNV-1" source="WIyWlLk6GJQsqaUBKTNV-3" target="sAYLSgdPXj7yx2jMauLX-11">
          <mxGeometry relative="1" as="geometry" />
        </mxCell>
        <mxCell id="WIyWlLk6GJQsqaUBKTNV-3" value="Parcels" style="rounded=1;whiteSpace=wrap;html=1;fontSize=12;glass=0;strokeWidth=1;shadow=0;" parent="WIyWlLk6GJQsqaUBKTNV-1" vertex="1">
          <mxGeometry x="200" y="170" width="120" height="40" as="geometry" />
        </mxCell>
        <mxCell id="WIyWlLk6GJQsqaUBKTNV-7" value="Stations" style="rounded=1;whiteSpace=wrap;html=1;fontSize=12;glass=0;strokeWidth=1;shadow=0;" parent="WIyWlLk6GJQsqaUBKTNV-1" vertex="1">
          <mxGeometry x="40" y="170" width="120" height="40" as="geometry" />
        </mxCell>
        <mxCell id="sAYLSgdPXj7yx2jMauLX-0" value="&lt;font style=&quot;font-size: 36px&quot;&gt;Station Area Dashboard Data Generation&lt;/font&gt;" style="text;html=1;strokeColor=none;fillColor=none;align=center;verticalAlign=middle;whiteSpace=wrap;rounded=0;" vertex="1" parent="WIyWlLk6GJQsqaUBKTNV-1">
          <mxGeometry x="40" y="10" width="760" height="60" as="geometry" />
        </mxCell>
        <mxCell id="sAYLSgdPXj7yx2jMauLX-1" value="&lt;font style=&quot;font-size: 24px&quot;&gt;Input Data Sets&lt;/font&gt;" style="rounded=1;whiteSpace=wrap;html=1;" vertex="1" parent="WIyWlLk6GJQsqaUBKTNV-1">
          <mxGeometry x="40" y="80" width="760" height="60" as="geometry" />
        </mxCell>
        <mxCell id="sAYLSgdPXj7yx2jMauLX-2" value="TAZs" style="rounded=1;whiteSpace=wrap;html=1;fontSize=12;glass=0;strokeWidth=1;shadow=0;" vertex="1" parent="WIyWlLk6GJQsqaUBKTNV-1">
          <mxGeometry x="520" y="170" width="120" height="40" as="geometry" />
        </mxCell>
        <mxCell id="sAYLSgdPXj7yx2jMauLX-5" value="AHS" style="rounded=1;whiteSpace=wrap;html=1;fontSize=12;glass=0;strokeWidth=1;shadow=0;" vertex="1" parent="WIyWlLk6GJQsqaUBKTNV-1">
          <mxGeometry x="680" y="170" width="120" height="40" as="geometry" />
        </mxCell>
        <mxCell id="sAYLSgdPXj7yx2jMauLX-6" value="Affordable Housing" style="rounded=1;whiteSpace=wrap;html=1;fontSize=12;glass=0;strokeWidth=1;shadow=0;" vertex="1" parent="WIyWlLk6GJQsqaUBKTNV-1">
          <mxGeometry x="360" y="170" width="120" height="40" as="geometry" />
        </mxCell>
        <mxCell id="sAYLSgdPXj7yx2jMauLX-7" value="The input data are as follows:&lt;br&gt;&lt;ul&gt;&lt;li&gt;Parcel: polygon shape file consisting of every parcel that is in the LCRT corridor&lt;/li&gt;&lt;li&gt;Stations: point shape file consisting of every station&lt;/li&gt;&lt;li&gt;Affordable Housing: point shape file gathered by SB Friedman highlighting affordable housing units in the study area.&lt;/li&gt;&lt;li&gt;TAZs: polygon shape file gathered by SB Friedman covering every traffic analysis zone in the corridor.&lt;/li&gt;&lt;li&gt;AHS: polygon shape file from the US Census containing data from the American Housing Survey for block groups in the corridor.&lt;/li&gt;&lt;/ul&gt;&lt;div&gt;Input Pre-processing:&lt;/div&gt;&lt;div&gt;&lt;ul&gt;&lt;li&gt;Parcels: None&amp;nbsp;&lt;/li&gt;&lt;li&gt;Stations: Select stations in the scenario being summarized.&lt;/li&gt;&lt;li&gt;Affordable Housing: None&lt;/li&gt;&lt;li&gt;TAZs: None&lt;/li&gt;&lt;li&gt;AHD: None&lt;/li&gt;&lt;/ul&gt;&lt;/div&gt;" style="text;html=1;strokeColor=none;fillColor=none;align=left;verticalAlign=top;whiteSpace=wrap;rounded=0;labelBorderColor=#000000;labelBackgroundColor=#ffffff;" vertex="1" parent="WIyWlLk6GJQsqaUBKTNV-1">
          <mxGeometry x="460" y="235" width="300" height="350" as="geometry" />
        </mxCell>
        <mxCell id="sAYLSgdPXj7yx2jMauLX-16" value="" style="edgeStyle=orthogonalEdgeStyle;rounded=0;orthogonalLoop=1;jettySize=auto;html=1;" edge="1" parent="WIyWlLk6GJQsqaUBKTNV-1" source="sAYLSgdPXj7yx2jMauLX-11" target="sAYLSgdPXj7yx2jMauLX-15">
          <mxGeometry relative="1" as="geometry" />
        </mxCell>
        <mxCell id="sAYLSgdPXj7yx2jMauLX-11" value="Create half mile buffer.&lt;br&gt;Select Parcels within buffer." style="rhombus;whiteSpace=wrap;html=1;align=center;" vertex="1" parent="WIyWlLk6GJQsqaUBKTNV-1">
          <mxGeometry x="50" y="270" width="250" height="150" as="geometry" />
        </mxCell>
        <mxCell id="sAYLSgdPXj7yx2jMauLX-13" value="" style="edgeStyle=orthogonalEdgeStyle;rounded=0;orthogonalLoop=1;jettySize=auto;html=1;" edge="1" parent="WIyWlLk6GJQsqaUBKTNV-1" source="sAYLSgdPXj7yx2jMauLX-12" target="sAYLSgdPXj7yx2jMauLX-11">
          <mxGeometry relative="1" as="geometry" />
        </mxCell>
        <mxCell id="sAYLSgdPXj7yx2jMauLX-12" value="Stations" style="rounded=1;whiteSpace=wrap;html=1;fontSize=12;glass=0;strokeWidth=1;shadow=0;" vertex="1" parent="WIyWlLk6GJQsqaUBKTNV-1">
          <mxGeometry x="40" y="170" width="120" height="40" as="geometry" />
        </mxCell>
        <mxCell id="sAYLSgdPXj7yx2jMauLX-18" value="" style="edgeStyle=orthogonalEdgeStyle;rounded=0;orthogonalLoop=1;jettySize=auto;html=1;" edge="1" parent="WIyWlLk6GJQsqaUBKTNV-1" source="sAYLSgdPXj7yx2jMauLX-15" target="sAYLSgdPXj7yx2jMauLX-17">
          <mxGeometry relative="1" as="geometry" />
        </mxCell>
        <mxCell id="sAYLSgdPXj7yx2jMauLX-15" value="Parcels within Buffer" style="rounded=1;whiteSpace=wrap;html=1;align=center;" vertex="1" parent="WIyWlLk6GJQsqaUBKTNV-1">
          <mxGeometry x="75" y="490" width="200" height="60" as="geometry" />
        </mxCell>
        <mxCell id="sAYLSgdPXj7yx2jMauLX-41" value="" style="edgeStyle=orthogonalEdgeStyle;rounded=0;orthogonalLoop=1;jettySize=auto;html=1;exitX=0.5;exitY=1;exitDx=0;exitDy=0;" edge="1" parent="WIyWlLk6GJQsqaUBKTNV-1" source="sAYLSgdPXj7yx2jMauLX-17" target="sAYLSgdPXj7yx2jMauLX-26">
          <mxGeometry relative="1" as="geometry">
            <Array as="points">
              <mxPoint x="175" y="770" />
              <mxPoint x="295" y="770" />
            </Array>
          </mxGeometry>
        </mxCell>
        <mxCell id="sAYLSgdPXj7yx2jMauLX-17" value="Parcels Area was summarized by&amp;nbsp;&lt;br&gt;Land Use Type" style="rhombus;whiteSpace=wrap;html=1;align=center;" vertex="1" parent="WIyWlLk6GJQsqaUBKTNV-1">
          <mxGeometry x="55" y="590" width="240" height="170" as="geometry" />
        </mxCell>
        <mxCell id="sAYLSgdPXj7yx2jMauLX-49" value="" style="edgeStyle=none;rounded=0;orthogonalLoop=1;jettySize=auto;html=1;" edge="1" parent="WIyWlLk6GJQsqaUBKTNV-1" source="sAYLSgdPXj7yx2jMauLX-19" target="sAYLSgdPXj7yx2jMauLX-24">
          <mxGeometry relative="1" as="geometry" />
        </mxCell>
        <mxCell id="sAYLSgdPXj7yx2jMauLX-19" value="Single Family Square Feet" style="ellipse;whiteSpace=wrap;html=1;aspect=fixed;align=center;" vertex="1" parent="WIyWlLk6GJQsqaUBKTNV-1">
          <mxGeometry x="390" y="800" width="110" height="110" as="geometry" />
        </mxCell>
        <mxCell id="sAYLSgdPXj7yx2jMauLX-60" value="" style="edgeStyle=none;rounded=0;orthogonalLoop=1;jettySize=auto;html=1;" edge="1" parent="WIyWlLk6GJQsqaUBKTNV-1" source="sAYLSgdPXj7yx2jMauLX-20" target="sAYLSgdPXj7yx2jMauLX-53">
          <mxGeometry relative="1" as="geometry" />
        </mxCell>
        <mxCell id="sAYLSgdPXj7yx2jMauLX-20" value="Multi Family&lt;br&gt;Square Feet" style="ellipse;whiteSpace=wrap;html=1;aspect=fixed;align=center;" vertex="1" parent="WIyWlLk6GJQsqaUBKTNV-1">
          <mxGeometry x="240" y="940" width="110" height="110" as="geometry" />
        </mxCell>
        <mxCell id="sAYLSgdPXj7yx2jMauLX-47" value="" style="edgeStyle=none;rounded=0;orthogonalLoop=1;jettySize=auto;html=1;" edge="1" parent="WIyWlLk6GJQsqaUBKTNV-1" source="sAYLSgdPXj7yx2jMauLX-21" target="sAYLSgdPXj7yx2jMauLX-23">
          <mxGeometry relative="1" as="geometry" />
        </mxCell>
        <mxCell id="sAYLSgdPXj7yx2jMauLX-21" value="Retail/Commercial Square Feet" style="ellipse;whiteSpace=wrap;html=1;aspect=fixed;align=center;" vertex="1" parent="WIyWlLk6GJQsqaUBKTNV-1">
          <mxGeometry x="55" y="800" width="110" height="110" as="geometry" />
        </mxCell>
        <mxCell id="sAYLSgdPXj7yx2jMauLX-23" value="Industrial&lt;br&gt;Square Feet" style="ellipse;whiteSpace=wrap;html=1;aspect=fixed;align=center;" vertex="1" parent="WIyWlLk6GJQsqaUBKTNV-1">
          <mxGeometry x="55" y="940" width="110" height="110" as="geometry" />
        </mxCell>
        <mxCell id="sAYLSgdPXj7yx2jMauLX-24" value="Other Uses&lt;br&gt;Square Feet" style="ellipse;whiteSpace=wrap;html=1;aspect=fixed;align=center;" vertex="1" parent="WIyWlLk6GJQsqaUBKTNV-1">
          <mxGeometry x="390" y="940" width="110" height="110" as="geometry" />
        </mxCell>
        <mxCell id="sAYLSgdPXj7yx2jMauLX-48" value="" style="edgeStyle=none;rounded=0;orthogonalLoop=1;jettySize=auto;html=1;" edge="1" parent="WIyWlLk6GJQsqaUBKTNV-1" source="sAYLSgdPXj7yx2jMauLX-26" target="sAYLSgdPXj7yx2jMauLX-20">
          <mxGeometry relative="1" as="geometry" />
        </mxCell>
        <mxCell id="sAYLSgdPXj7yx2jMauLX-26" value="Office&lt;br&gt;Square Feet" style="ellipse;whiteSpace=wrap;html=1;aspect=fixed;align=center;" vertex="1" parent="WIyWlLk6GJQsqaUBKTNV-1">
          <mxGeometry x="240" y="800" width="110" height="110" as="geometry" />
        </mxCell>
        <mxCell id="sAYLSgdPXj7yx2jMauLX-45" value="" style="edgeStyle=orthogonalEdgeStyle;rounded=0;orthogonalLoop=1;jettySize=auto;html=1;exitX=0.5;exitY=1;exitDx=0;exitDy=0;entryX=0.5;entryY=0;entryDx=0;entryDy=0;" edge="1" parent="WIyWlLk6GJQsqaUBKTNV-1" source="sAYLSgdPXj7yx2jMauLX-17" target="sAYLSgdPXj7yx2jMauLX-21">
          <mxGeometry relative="1" as="geometry">
            <mxPoint x="425" y="779.2916666666667" as="sourcePoint" />
            <mxPoint x="425" y="810" as="targetPoint" />
            <Array as="points">
              <mxPoint x="175" y="800" />
            </Array>
          </mxGeometry>
        </mxCell>
        <mxCell id="sAYLSgdPXj7yx2jMauLX-46" value="" style="edgeStyle=orthogonalEdgeStyle;rounded=0;orthogonalLoop=1;jettySize=auto;html=1;exitX=0.5;exitY=1;exitDx=0;exitDy=0;entryX=0.5;entryY=0;entryDx=0;entryDy=0;" edge="1" parent="WIyWlLk6GJQsqaUBKTNV-1" source="sAYLSgdPXj7yx2jMauLX-17" target="sAYLSgdPXj7yx2jMauLX-19">
          <mxGeometry relative="1" as="geometry">
            <mxPoint x="424" y="780" as="sourcePoint" />
            <mxPoint x="265" y="810" as="targetPoint" />
            <Array as="points">
              <mxPoint x="175" y="770" />
              <mxPoint x="445" y="770" />
            </Array>
          </mxGeometry>
        </mxCell>
        <mxCell id="sAYLSgdPXj7yx2jMauLX-50" value="&lt;div&gt;Square Feet To Units Conversion:&lt;/div&gt;&lt;ul&gt;&lt;li&gt;Single Family 1800 sq ft = 1 Unit&lt;/li&gt;&lt;li&gt;Multi Family 1400 sq ft = 1 Unit&lt;/li&gt;&lt;li&gt;Industrial 1000 sq ft = 1 Unit&lt;/li&gt;&lt;li&gt;Office = 600 sq ft = 1 Unit&lt;/li&gt;&lt;li&gt;Retail/Commercial 700 sq ft = 1 Unit&lt;/li&gt;&lt;li&gt;Other 800 sq ft = 1 Unit&lt;/li&gt;&lt;/ul&gt;&lt;div&gt;These conversions can be adjusted each time the data is calculated.&lt;/div&gt;" style="text;html=1;strokeColor=none;fillColor=none;align=left;verticalAlign=top;whiteSpace=wrap;rounded=0;labelBackgroundColor=#ffffff;labelBorderColor=#000000;" vertex="1" parent="WIyWlLk6GJQsqaUBKTNV-1">
          <mxGeometry x="490" y="1149.5" width="240" height="190" as="geometry" />
        </mxCell>
        <mxCell id="sAYLSgdPXj7yx2jMauLX-63" value="" style="rounded=0;orthogonalLoop=1;jettySize=auto;html=1;" edge="1" parent="WIyWlLk6GJQsqaUBKTNV-1" source="sAYLSgdPXj7yx2jMauLX-53" target="sAYLSgdPXj7yx2jMauLX-50">
          <mxGeometry relative="1" as="geometry" />
        </mxCell>
        <mxCell id="sAYLSgdPXj7yx2jMauLX-75" value="" style="edgeStyle=none;rounded=0;orthogonalLoop=1;jettySize=auto;html=1;" edge="1" parent="WIyWlLk6GJQsqaUBKTNV-1" source="sAYLSgdPXj7yx2jMauLX-53" target="sAYLSgdPXj7yx2jMauLX-71">
          <mxGeometry relative="1" as="geometry" />
        </mxCell>
        <mxCell id="sAYLSgdPXj7yx2jMauLX-53" value="Converting Sq Ft to Units" style="rhombus;whiteSpace=wrap;html=1;labelBackgroundColor=#ffffff;align=center;" vertex="1" parent="WIyWlLk6GJQsqaUBKTNV-1">
          <mxGeometry x="210" y="1179" width="170" height="131" as="geometry" />
        </mxCell>
        <mxCell id="sAYLSgdPXj7yx2jMauLX-61" value="" style="edgeStyle=none;rounded=0;orthogonalLoop=1;jettySize=auto;html=1;exitX=0.5;exitY=1;exitDx=0;exitDy=0;entryX=0.5;entryY=0;entryDx=0;entryDy=0;" edge="1" parent="WIyWlLk6GJQsqaUBKTNV-1" source="sAYLSgdPXj7yx2jMauLX-24" target="sAYLSgdPXj7yx2jMauLX-53">
          <mxGeometry relative="1" as="geometry">
            <mxPoint x="380" y="1060" as="sourcePoint" />
            <mxPoint x="380" y="1189" as="targetPoint" />
          </mxGeometry>
        </mxCell>
        <mxCell id="sAYLSgdPXj7yx2jMauLX-62" value="" style="edgeStyle=none;rounded=0;orthogonalLoop=1;jettySize=auto;html=1;exitX=0.5;exitY=1;exitDx=0;exitDy=0;entryX=0.5;entryY=0;entryDx=0;entryDy=0;" edge="1" parent="WIyWlLk6GJQsqaUBKTNV-1" source="sAYLSgdPXj7yx2jMauLX-23" target="sAYLSgdPXj7yx2jMauLX-53">
          <mxGeometry relative="1" as="geometry">
            <mxPoint x="159" y="1070" as="sourcePoint" />
            <mxPoint x="159" y="1199" as="targetPoint" />
          </mxGeometry>
        </mxCell>
        <mxCell id="sAYLSgdPXj7yx2jMauLX-64" value="Retail/Commercial Square Feet" style="ellipse;whiteSpace=wrap;html=1;aspect=fixed;align=center;" vertex="1" parent="WIyWlLk6GJQsqaUBKTNV-1">
          <mxGeometry x="55" y="800" width="110" height="110" as="geometry" />
        </mxCell>
        <mxCell id="sAYLSgdPXj7yx2jMauLX-65" value="Office&lt;br&gt;Square Feet" style="ellipse;whiteSpace=wrap;html=1;aspect=fixed;align=center;" vertex="1" parent="WIyWlLk6GJQsqaUBKTNV-1">
          <mxGeometry x="240" y="800" width="110" height="110" as="geometry" />
        </mxCell>
        <mxCell id="sAYLSgdPXj7yx2jMauLX-66" value="Single Family Square Feet" style="ellipse;whiteSpace=wrap;html=1;aspect=fixed;align=center;" vertex="1" parent="WIyWlLk6GJQsqaUBKTNV-1">
          <mxGeometry x="390" y="800" width="110" height="110" as="geometry" />
        </mxCell>
        <mxCell id="sAYLSgdPXj7yx2jMauLX-67" value="Other Uses&lt;br&gt;Square Feet" style="ellipse;whiteSpace=wrap;html=1;aspect=fixed;align=center;" vertex="1" parent="WIyWlLk6GJQsqaUBKTNV-1">
          <mxGeometry x="390" y="940" width="110" height="110" as="geometry" />
        </mxCell>
        <mxCell id="sAYLSgdPXj7yx2jMauLX-68" value="Multi Family&lt;br&gt;Square Feet" style="ellipse;whiteSpace=wrap;html=1;aspect=fixed;align=center;" vertex="1" parent="WIyWlLk6GJQsqaUBKTNV-1">
          <mxGeometry x="240" y="940" width="110" height="110" as="geometry" />
        </mxCell>
        <mxCell id="sAYLSgdPXj7yx2jMauLX-69" value="Industrial&lt;br&gt;Units" style="ellipse;whiteSpace=wrap;html=1;aspect=fixed;align=center;" vertex="1" parent="WIyWlLk6GJQsqaUBKTNV-1">
          <mxGeometry x="55" y="1510" width="110" height="110" as="geometry" />
        </mxCell>
        <mxCell id="sAYLSgdPXj7yx2jMauLX-78" value="" style="edgeStyle=none;rounded=0;orthogonalLoop=1;jettySize=auto;html=1;" edge="1" parent="WIyWlLk6GJQsqaUBKTNV-1" source="sAYLSgdPXj7yx2jMauLX-70" target="sAYLSgdPXj7yx2jMauLX-69">
          <mxGeometry relative="1" as="geometry" />
        </mxCell>
        <mxCell id="sAYLSgdPXj7yx2jMauLX-70" value="Retail/Commercial&amp;nbsp;&lt;br&gt;Units" style="ellipse;whiteSpace=wrap;html=1;aspect=fixed;align=center;" vertex="1" parent="WIyWlLk6GJQsqaUBKTNV-1">
          <mxGeometry x="55" y="1370" width="110" height="110" as="geometry" />
        </mxCell>
        <mxCell id="sAYLSgdPXj7yx2jMauLX-79" value="" style="edgeStyle=none;rounded=0;orthogonalLoop=1;jettySize=auto;html=1;" edge="1" parent="WIyWlLk6GJQsqaUBKTNV-1" source="sAYLSgdPXj7yx2jMauLX-71" target="sAYLSgdPXj7yx2jMauLX-74">
          <mxGeometry relative="1" as="geometry" />
        </mxCell>
        <mxCell id="sAYLSgdPXj7yx2jMauLX-71" value="Office&lt;br&gt;Units" style="ellipse;whiteSpace=wrap;html=1;aspect=fixed;align=center;" vertex="1" parent="WIyWlLk6GJQsqaUBKTNV-1">
          <mxGeometry x="240" y="1370" width="110" height="110" as="geometry" />
        </mxCell>
        <mxCell id="sAYLSgdPXj7yx2jMauLX-80" value="" style="edgeStyle=none;rounded=0;orthogonalLoop=1;jettySize=auto;html=1;" edge="1" parent="WIyWlLk6GJQsqaUBKTNV-1" source="sAYLSgdPXj7yx2jMauLX-72" target="sAYLSgdPXj7yx2jMauLX-73">
          <mxGeometry relative="1" as="geometry" />
        </mxCell>
        <mxCell id="sAYLSgdPXj7yx2jMauLX-72" value="Single Family &lt;br&gt;Units" style="ellipse;whiteSpace=wrap;html=1;aspect=fixed;align=center;" vertex="1" parent="WIyWlLk6GJQsqaUBKTNV-1">
          <mxGeometry x="390" y="1370" width="110" height="110" as="geometry" />
        </mxCell>
        <mxCell id="sAYLSgdPXj7yx2jMauLX-73" value="Other Uses&lt;br&gt;Units" style="ellipse;whiteSpace=wrap;html=1;aspect=fixed;align=center;" vertex="1" parent="WIyWlLk6GJQsqaUBKTNV-1">
          <mxGeometry x="390" y="1510" width="110" height="110" as="geometry" />
        </mxCell>
        <mxCell id="sAYLSgdPXj7yx2jMauLX-82" value="" style="edgeStyle=none;rounded=0;orthogonalLoop=1;jettySize=auto;html=1;entryX=0.5;entryY=0;entryDx=0;entryDy=0;exitX=0.509;exitY=1.064;exitDx=0;exitDy=0;exitPerimeter=0;" edge="1" parent="WIyWlLk6GJQsqaUBKTNV-1" source="sAYLSgdPXj7yx2jMauLX-74" target="sAYLSgdPXj7yx2jMauLX-81">
          <mxGeometry relative="1" as="geometry">
            <mxPoint x="250" y="1700" as="targetPoint" />
          </mxGeometry>
        </mxCell>
        <mxCell id="sAYLSgdPXj7yx2jMauLX-74" value="Multi Family&lt;br&gt;Units" style="ellipse;whiteSpace=wrap;html=1;aspect=fixed;align=center;" vertex="1" parent="WIyWlLk6GJQsqaUBKTNV-1">
          <mxGeometry x="240" y="1510" width="110" height="110" as="geometry" />
        </mxCell>
        <mxCell id="sAYLSgdPXj7yx2jMauLX-76" value="" style="edgeStyle=none;rounded=0;orthogonalLoop=1;jettySize=auto;html=1;exitX=0.5;exitY=1;exitDx=0;exitDy=0;entryX=0.5;entryY=0;entryDx=0;entryDy=0;" edge="1" parent="WIyWlLk6GJQsqaUBKTNV-1" source="sAYLSgdPXj7yx2jMauLX-53" target="sAYLSgdPXj7yx2jMauLX-72">
          <mxGeometry relative="1" as="geometry">
            <mxPoint x="305" y="1320" as="sourcePoint" />
            <mxPoint x="305" y="1380" as="targetPoint" />
          </mxGeometry>
        </mxCell>
        <mxCell id="sAYLSgdPXj7yx2jMauLX-77" value="" style="edgeStyle=none;rounded=0;orthogonalLoop=1;jettySize=auto;html=1;entryX=0.5;entryY=0;entryDx=0;entryDy=0;exitX=0.5;exitY=1;exitDx=0;exitDy=0;" edge="1" parent="WIyWlLk6GJQsqaUBKTNV-1" source="sAYLSgdPXj7yx2jMauLX-53" target="sAYLSgdPXj7yx2jMauLX-70">
          <mxGeometry relative="1" as="geometry">
            <mxPoint x="305" y="1320" as="sourcePoint" />
            <mxPoint x="305" y="1380" as="targetPoint" />
          </mxGeometry>
        </mxCell>
        <mxCell id="sAYLSgdPXj7yx2jMauLX-87" value="" style="edgeStyle=none;rounded=0;orthogonalLoop=1;jettySize=auto;html=1;" edge="1" parent="WIyWlLk6GJQsqaUBKTNV-1" source="sAYLSgdPXj7yx2jMauLX-81" target="sAYLSgdPXj7yx2jMauLX-86">
          <mxGeometry relative="1" as="geometry" />
        </mxCell>
        <mxCell id="sAYLSgdPXj7yx2jMauLX-81" value="Residential and Employment&lt;br&gt;Units" style="rhombus;whiteSpace=wrap;html=1;labelBackgroundColor=#ffffff;align=center;" vertex="1" parent="WIyWlLk6GJQsqaUBKTNV-1">
          <mxGeometry x="200" y="1710" width="185" height="160" as="geometry" />
        </mxCell>
        <mxCell id="sAYLSgdPXj7yx2jMauLX-83" value="" style="edgeStyle=none;rounded=0;orthogonalLoop=1;jettySize=auto;html=1;exitX=0.5;exitY=1;exitDx=0;exitDy=0;entryX=0.5;entryY=0;entryDx=0;entryDy=0;" edge="1" parent="WIyWlLk6GJQsqaUBKTNV-1" source="sAYLSgdPXj7yx2jMauLX-73" target="sAYLSgdPXj7yx2jMauLX-81">
          <mxGeometry relative="1" as="geometry">
            <mxPoint x="302.2187527216556" y="1629.9296337472988" as="sourcePoint" />
            <mxPoint x="296.56816932380434" y="1733.5184167124794" as="targetPoint" />
          </mxGeometry>
        </mxCell>
        <mxCell id="sAYLSgdPXj7yx2jMauLX-84" value="" style="edgeStyle=none;rounded=0;orthogonalLoop=1;jettySize=auto;html=1;exitX=0.5;exitY=1;exitDx=0;exitDy=0;" edge="1" parent="WIyWlLk6GJQsqaUBKTNV-1" source="sAYLSgdPXj7yx2jMauLX-69">
          <mxGeometry relative="1" as="geometry">
            <mxPoint x="455" y="1630" as="sourcePoint" />
            <mxPoint x="293" y="1710" as="targetPoint" />
          </mxGeometry>
        </mxCell>
        <mxCell id="sAYLSgdPXj7yx2jMauLX-86" value="Single Family and Multifamily are combined into a single value, Residential Units, While all other units are combine into employment units." style="text;html=1;strokeColor=none;fillColor=none;align=left;verticalAlign=middle;whiteSpace=wrap;rounded=0;labelBackgroundColor=#ffffff;labelBorderColor=#000000;" vertex="1" parent="WIyWlLk6GJQsqaUBKTNV-1">
          <mxGeometry x="490" y="1707.5" width="180" height="165" as="geometry" />
        </mxCell>
        <mxCell id="sAYLSgdPXj7yx2jMauLX-93" value="" style="edgeStyle=orthogonalEdgeStyle;rounded=0;orthogonalLoop=1;jettySize=auto;html=1;" edge="1" parent="WIyWlLk6GJQsqaUBKTNV-1" source="sAYLSgdPXj7yx2jMauLX-81" target="sAYLSgdPXj7yx2jMauLX-90">
          <mxGeometry relative="1" as="geometry" />
        </mxCell>
        <mxCell id="sAYLSgdPXj7yx2jMauLX-100" value="" style="edgeStyle=orthogonalEdgeStyle;rounded=0;orthogonalLoop=1;jettySize=auto;html=1;" edge="1" parent="WIyWlLk6GJQsqaUBKTNV-1" source="sAYLSgdPXj7yx2jMauLX-90" target="sAYLSgdPXj7yx2jMauLX-99">
          <mxGeometry relative="1" as="geometry" />
        </mxCell>
        <mxCell id="sAYLSgdPXj7yx2jMauLX-90" value="Residential Units" style="ellipse;whiteSpace=wrap;html=1;aspect=fixed;align=center;" vertex="1" parent="WIyWlLk6GJQsqaUBKTNV-1">
          <mxGeometry x="120" y="1920" width="110" height="110" as="geometry" />
        </mxCell>
        <mxCell id="sAYLSgdPXj7yx2jMauLX-92" value="" style="edgeStyle=orthogonalEdgeStyle;rounded=0;orthogonalLoop=1;jettySize=auto;html=1;" edge="1" parent="WIyWlLk6GJQsqaUBKTNV-1" source="sAYLSgdPXj7yx2jMauLX-81" target="sAYLSgdPXj7yx2jMauLX-91">
          <mxGeometry relative="1" as="geometry" />
        </mxCell>
        <mxCell id="sAYLSgdPXj7yx2jMauLX-91" value="Employment Units&lt;br&gt;" style="ellipse;whiteSpace=wrap;html=1;aspect=fixed;align=center;" vertex="1" parent="WIyWlLk6GJQsqaUBKTNV-1">
          <mxGeometry x="355" y="1920" width="110" height="110" as="geometry" />
        </mxCell>
        <mxCell id="sAYLSgdPXj7yx2jMauLX-95" value="" style="edgeStyle=orthogonalEdgeStyle;rounded=0;orthogonalLoop=1;jettySize=auto;html=1;" edge="1" parent="WIyWlLk6GJQsqaUBKTNV-1" source="sAYLSgdPXj7yx2jMauLX-15" target="sAYLSgdPXj7yx2jMauLX-94">
          <mxGeometry relative="1" as="geometry">
            <Array as="points">
              <mxPoint x="400" y="520" />
              <mxPoint x="400" y="620" />
            </Array>
          </mxGeometry>
        </mxCell>
        <mxCell id="sAYLSgdPXj7yx2jMauLX-97" value="" style="edgeStyle=orthogonalEdgeStyle;rounded=0;orthogonalLoop=1;jettySize=auto;html=1;" edge="1" parent="WIyWlLk6GJQsqaUBKTNV-1" source="sAYLSgdPXj7yx2jMauLX-94" target="sAYLSgdPXj7yx2jMauLX-96">
          <mxGeometry relative="1" as="geometry" />
        </mxCell>
        <mxCell id="sAYLSgdPXj7yx2jMauLX-94" value="Count Affordable Housing Units&amp;nbsp;&lt;br&gt;within buffer" style="rhombus;whiteSpace=wrap;html=1;labelBackgroundColor=#ffffff;align=center;" vertex="1" parent="WIyWlLk6GJQsqaUBKTNV-1">
          <mxGeometry x="560" y="650" width="190" height="140" as="geometry" />
        </mxCell>
        <mxCell id="sAYLSgdPXj7yx2jMauLX-96" value="Affordable Housing Units" style="ellipse;whiteSpace=wrap;html=1;aspect=fixed;labelBackgroundColor=#ffffff;align=center;" vertex="1" parent="WIyWlLk6GJQsqaUBKTNV-1">
          <mxGeometry x="600" y="860" width="110" height="110" as="geometry" />
        </mxCell>
        <mxCell id="sAYLSgdPXj7yx2jMauLX-98" value="" style="edgeStyle=orthogonalEdgeStyle;rounded=0;orthogonalLoop=1;jettySize=auto;html=1;exitX=0.5;exitY=1;exitDx=0;exitDy=0;entryX=0.5;entryY=0;entryDx=0;entryDy=0;" edge="1" parent="WIyWlLk6GJQsqaUBKTNV-1" source="sAYLSgdPXj7yx2jMauLX-6" target="sAYLSgdPXj7yx2jMauLX-11">
          <mxGeometry relative="1" as="geometry">
            <mxPoint x="270" y="220" as="sourcePoint" />
            <mxPoint x="185" y="280" as="targetPoint" />
            <Array as="points">
              <mxPoint x="420" y="240" />
              <mxPoint x="175" y="240" />
            </Array>
          </mxGeometry>
        </mxCell>
        <mxCell id="sAYLSgdPXj7yx2jMauLX-104" value="" style="edgeStyle=orthogonalEdgeStyle;rounded=0;orthogonalLoop=1;jettySize=auto;html=1;entryX=0.014;entryY=0.34;entryDx=0;entryDy=0;entryPerimeter=0;" edge="1" parent="WIyWlLk6GJQsqaUBKTNV-1" source="sAYLSgdPXj7yx2jMauLX-99" target="sAYLSgdPXj7yx2jMauLX-103">
          <mxGeometry relative="1" as="geometry">
            <mxPoint x="360" y="2175" as="targetPoint" />
            <Array as="points">
              <mxPoint x="381" y="2175" />
            </Array>
          </mxGeometry>
        </mxCell>
        <mxCell id="sAYLSgdPXj7yx2jMauLX-107" value="" style="edgeStyle=orthogonalEdgeStyle;rounded=0;orthogonalLoop=1;jettySize=auto;html=1;" edge="1" parent="WIyWlLk6GJQsqaUBKTNV-1" source="sAYLSgdPXj7yx2jMauLX-99" target="sAYLSgdPXj7yx2jMauLX-106">
          <mxGeometry relative="1" as="geometry" />
        </mxCell>
        <mxCell id="sAYLSgdPXj7yx2jMauLX-99" value="Find occupied Units" style="rhombus;whiteSpace=wrap;html=1;labelBackgroundColor=#ffffff;align=center;" vertex="1" parent="WIyWlLk6GJQsqaUBKTNV-1">
          <mxGeometry x="87.5" y="2100" width="175" height="150" as="geometry" />
        </mxCell>
        <mxCell id="sAYLSgdPXj7yx2jMauLX-101" value="" style="edgeStyle=orthogonalEdgeStyle;rounded=0;orthogonalLoop=1;jettySize=auto;html=1;entryX=0.5;entryY=0;entryDx=0;entryDy=0;exitX=0.5;exitY=1;exitDx=0;exitDy=0;" edge="1" parent="WIyWlLk6GJQsqaUBKTNV-1" source="sAYLSgdPXj7yx2jMauLX-5" target="sAYLSgdPXj7yx2jMauLX-99">
          <mxGeometry relative="1" as="geometry">
            <mxPoint x="810" y="230" as="sourcePoint" />
            <mxPoint x="185" y="2110" as="targetPoint" />
            <Array as="points">
              <mxPoint x="740" y="230" />
              <mxPoint x="810" y="230" />
              <mxPoint x="810" y="2070" />
              <mxPoint x="175" y="2070" />
            </Array>
          </mxGeometry>
        </mxCell>
        <mxCell id="sAYLSgdPXj7yx2jMauLX-103" value="The vacancy rate for block groups in the station area is calculated from AHS data and multiplied by the number of residential units to find occupied units." style="text;html=1;strokeColor=none;fillColor=none;align=left;verticalAlign=top;whiteSpace=wrap;rounded=0;labelBackgroundColor=#ffffff;labelBorderColor=#000000;" vertex="1" parent="WIyWlLk6GJQsqaUBKTNV-1">
          <mxGeometry x="500" y="2130" width="180" height="135" as="geometry" />
        </mxCell>
        <mxCell id="sAYLSgdPXj7yx2jMauLX-109" value="" style="edgeStyle=orthogonalEdgeStyle;rounded=0;orthogonalLoop=1;jettySize=auto;html=1;" edge="1" parent="WIyWlLk6GJQsqaUBKTNV-1" source="sAYLSgdPXj7yx2jMauLX-106" target="sAYLSgdPXj7yx2jMauLX-108">
          <mxGeometry relative="1" as="geometry" />
        </mxCell>
        <mxCell id="sAYLSgdPXj7yx2jMauLX-106" value="Occupied Housing Units" style="ellipse;whiteSpace=wrap;html=1;aspect=fixed;align=center;" vertex="1" parent="WIyWlLk6GJQsqaUBKTNV-1">
          <mxGeometry x="120" y="2310" width="110" height="110" as="geometry" />
        </mxCell>
        <mxCell id="sAYLSgdPXj7yx2jMauLX-113" value="" style="edgeStyle=orthogonalEdgeStyle;rounded=0;orthogonalLoop=1;jettySize=auto;html=1;" edge="1" parent="WIyWlLk6GJQsqaUBKTNV-1" source="sAYLSgdPXj7yx2jMauLX-108" target="sAYLSgdPXj7yx2jMauLX-112">
          <mxGeometry relative="1" as="geometry" />
        </mxCell>
        <mxCell id="sAYLSgdPXj7yx2jMauLX-115" value="" style="edgeStyle=orthogonalEdgeStyle;rounded=0;orthogonalLoop=1;jettySize=auto;html=1;" edge="1" parent="WIyWlLk6GJQsqaUBKTNV-1" source="sAYLSgdPXj7yx2jMauLX-108" target="sAYLSgdPXj7yx2jMauLX-114">
          <mxGeometry relative="1" as="geometry" />
        </mxCell>
        <mxCell id="sAYLSgdPXj7yx2jMauLX-108" value="Estimate Population" style="rhombus;whiteSpace=wrap;html=1;labelBackgroundColor=#ffffff;align=center;" vertex="1" parent="WIyWlLk6GJQsqaUBKTNV-1">
          <mxGeometry x="87.5" y="2490" width="175" height="150" as="geometry" />
        </mxCell>
        <mxCell id="sAYLSgdPXj7yx2jMauLX-111" value="" style="edgeStyle=orthogonalEdgeStyle;rounded=0;orthogonalLoop=1;jettySize=auto;html=1;entryX=0.5;entryY=0;entryDx=0;entryDy=0;exitX=0.5;exitY=1;exitDx=0;exitDy=0;" edge="1" parent="WIyWlLk6GJQsqaUBKTNV-1" source="sAYLSgdPXj7yx2jMauLX-2" target="sAYLSgdPXj7yx2jMauLX-108">
          <mxGeometry relative="1" as="geometry">
            <mxPoint x="810" y="220" as="sourcePoint" />
            <mxPoint x="185" y="2500" as="targetPoint" />
            <Array as="points">
              <mxPoint x="580" y="230" />
              <mxPoint x="810" y="230" />
              <mxPoint x="810" y="2460" />
              <mxPoint x="175" y="2460" />
            </Array>
          </mxGeometry>
        </mxCell>
        <mxCell id="sAYLSgdPXj7yx2jMauLX-112" value="The average population per household from the TAZ data is multipled by Occupied Housing Units to estimate population." style="text;html=1;strokeColor=none;fillColor=none;align=left;verticalAlign=middle;whiteSpace=wrap;rounded=0;labelBackgroundColor=#ffffff;labelBorderColor=#000000;" vertex="1" parent="WIyWlLk6GJQsqaUBKTNV-1">
          <mxGeometry x="475" y="2520" width="230" height="90" as="geometry" />
        </mxCell>
        <mxCell id="sAYLSgdPXj7yx2jMauLX-114" value="Population" style="ellipse;whiteSpace=wrap;html=1;aspect=fixed;align=center;" vertex="1" parent="WIyWlLk6GJQsqaUBKTNV-1">
          <mxGeometry x="120" y="2710" width="110" height="110" as="geometry" />
        </mxCell>
        <mxCell id="sAYLSgdPXj7yx2jMauLX-121" value="" style="edgeStyle=orthogonalEdgeStyle;rounded=0;orthogonalLoop=1;jettySize=auto;html=1;" edge="1" parent="WIyWlLk6GJQsqaUBKTNV-1" source="sAYLSgdPXj7yx2jMauLX-117" target="sAYLSgdPXj7yx2jMauLX-120">
          <mxGeometry relative="1" as="geometry" />
        </mxCell>
        <mxCell id="sAYLSgdPXj7yx2jMauLX-124" value="" style="edgeStyle=orthogonalEdgeStyle;rounded=0;orthogonalLoop=1;jettySize=auto;html=1;" edge="1" parent="WIyWlLk6GJQsqaUBKTNV-1" source="sAYLSgdPXj7yx2jMauLX-117" target="sAYLSgdPXj7yx2jMauLX-123">
          <mxGeometry relative="1" as="geometry" />
        </mxCell>
        <mxCell id="sAYLSgdPXj7yx2jMauLX-117" value="Development Area" style="rhombus;whiteSpace=wrap;html=1;labelBackgroundColor=#ffffff;align=center;" vertex="1" parent="WIyWlLk6GJQsqaUBKTNV-1">
          <mxGeometry x="87.5" y="2890" width="175" height="150" as="geometry" />
        </mxCell>
        <mxCell id="sAYLSgdPXj7yx2jMauLX-119" value="" style="edgeStyle=orthogonalEdgeStyle;rounded=0;orthogonalLoop=1;jettySize=auto;html=1;entryX=0.5;entryY=0;entryDx=0;entryDy=0;exitX=0;exitY=0.5;exitDx=0;exitDy=0;" edge="1" parent="WIyWlLk6GJQsqaUBKTNV-1" source="sAYLSgdPXj7yx2jMauLX-15" target="sAYLSgdPXj7yx2jMauLX-117">
          <mxGeometry relative="1" as="geometry">
            <mxPoint x="20" y="520" as="sourcePoint" />
            <mxPoint x="185" y="2900" as="targetPoint" />
            <Array as="points">
              <mxPoint x="20" y="520" />
              <mxPoint x="20" y="2860" />
              <mxPoint x="175" y="2860" />
            </Array>
          </mxGeometry>
        </mxCell>
        <mxCell id="sAYLSgdPXj7yx2jMauLX-120" value="Parcels that have been tagged as development sites have their areas extracted and summed." style="text;html=1;strokeColor=none;fillColor=none;align=left;verticalAlign=middle;whiteSpace=wrap;rounded=0;labelBackgroundColor=#ffffff;labelBorderColor=#000000;" vertex="1" parent="WIyWlLk6GJQsqaUBKTNV-1">
          <mxGeometry x="465" y="2920" width="230" height="90" as="geometry" />
        </mxCell>
        <mxCell id="sAYLSgdPXj7yx2jMauLX-123" value="Redevelopment Area" style="ellipse;whiteSpace=wrap;html=1;aspect=fixed;align=center;" vertex="1" parent="WIyWlLk6GJQsqaUBKTNV-1">
          <mxGeometry x="120" y="3090" width="110" height="110" as="geometry" />
        </mxCell>
        <mxCell id="sAYLSgdPXj7yx2jMauLX-125" value="This Process is repeated for each station that is summarized and final results are presented in a spreadsheet" style="text;html=1;strokeColor=none;fillColor=none;align=center;verticalAlign=middle;whiteSpace=wrap;rounded=0;labelBackgroundColor=#ffffff;" vertex="1" parent="WIyWlLk6GJQsqaUBKTNV-1">
          <mxGeometry x="40" y="3270" width="760" height="20" as="geometry" />
        </mxCell>
        <mxCell id="sAYLSgdPXj7yx2jMauLX-126" value="&lt;h1&gt;Key&lt;/h1&gt;&lt;p&gt;Rounded rectangles are data sets, either inputs or derived.&lt;/p&gt;&lt;p&gt;Diamonds are processes in the script&lt;/p&gt;&lt;p&gt;Circles are output fields in the final spreadsheet&lt;/p&gt;&lt;p&gt;&lt;br&gt;&lt;/p&gt;" style="text;html=1;strokeColor=none;fillColor=none;spacing=5;spacingTop=-20;whiteSpace=wrap;overflow=hidden;rounded=0;labelBackgroundColor=#ffffff;align=left;" vertex="1" parent="WIyWlLk6GJQsqaUBKTNV-1">
          <mxGeometry x="460" y="3070" width="330" height="120" as="geometry" />
        </mxCell>
      </root>
    </mxGraphModel>
  </diagram>
</mxfile>
